<svg width="335" height="40" viewBox="0 0 335 40" fill="none" xmlns="http://www.w3.org/2000/svg">
<rect width="40" height="40" rx="4" fill="white"/>
<path d="M24.1667 27.7084H15.8334C12.7917 27.7084 11.0417 25.9584 11.0417 22.9167V17.0834C11.0417 14.0417 12.7917 12.2917 15.8334 12.2917H24.1667C27.2084 12.2917 28.9584 14.0417 28.9584 17.0834V22.9167C28.9584 25.9584 27.2084 27.7084 24.1667 27.7084ZM15.8334 13.5417C13.4501 13.5417 12.2917 14.7 12.2917 17.0834V22.9167C12.2917 25.3 13.4501 26.4584 15.8334 26.4584H24.1667C26.5501 26.4584 27.7084 25.3 27.7084 22.9167V17.0834C27.7084 14.7 26.5501 13.5417 24.1667 13.5417H15.8334Z" fill="#1A2630"/>
<path d="M19.9997 20.725C19.2997 20.725 18.5914 20.5083 18.0497 20.0666L15.4414 17.9833C15.1747 17.7666 15.1247 17.375 15.3414 17.1083C15.5581 16.8416 15.9497 16.7916 16.2164 17.0083L18.8247 19.0916C19.4581 19.6 20.5331 19.6 21.1664 19.0916L23.7747 17.0083C24.0414 16.7916 24.4414 16.8333 24.6497 17.1083C24.8664 17.375 24.8247 17.775 24.5497 17.9833L21.9414 20.0666C21.4081 20.5083 20.6997 20.725 19.9997 20.725Z" fill="#1A2630"/>
<path d="M68.36 27.5H57.872V11.492H68.36V13.268H59.864V18.428H68.192V20.204H59.864V25.724H68.36V27.5ZM87.2561 27.5H85.4561V19.628C85.4561 18.164 84.8081 17.228 83.3201 17.228C82.1201 17.228 80.8481 18.092 80.2481 19.004V27.5H78.4481V19.628C78.4481 18.164 77.8241 17.228 76.3121 17.228C75.1361 17.228 73.8881 18.092 73.2641 19.028V27.5H71.4641V15.908H73.2641V17.588C73.7441 16.844 75.3041 15.62 77.0081 15.62C78.7841 15.62 79.7921 16.58 80.1281 17.78C80.7761 16.724 82.3361 15.62 84.0161 15.62C86.1281 15.62 87.2561 16.796 87.2561 19.124V27.5ZM99.8949 27.5H98.0949V26.18C97.1349 27.236 95.8149 27.788 94.2549 27.788C92.2869 27.788 90.1989 26.468 90.1989 23.948C90.1989 21.356 92.2869 20.132 94.2549 20.132C95.8389 20.132 97.1589 20.636 98.0949 21.716V19.628C98.0949 18.068 96.8469 17.18 95.1669 17.18C93.7749 17.18 92.6469 17.684 91.6149 18.788L90.7749 17.54C92.0229 16.244 93.5109 15.62 95.4069 15.62C97.8549 15.62 99.8949 16.724 99.8949 19.532V27.5ZM94.9029 26.492C96.1749 26.492 97.3989 26.012 98.0949 25.052V22.868C97.3989 21.908 96.1749 21.428 94.9029 21.428C93.2229 21.428 92.0469 22.484 92.0469 23.972C92.0469 25.436 93.2229 26.492 94.9029 26.492ZM104.391 14.252C103.743 14.252 103.191 13.724 103.191 13.052C103.191 12.38 103.743 11.828 104.391 11.828C105.063 11.828 105.615 12.38 105.615 13.052C105.615 13.724 105.063 14.252 104.391 14.252ZM105.303 27.5H103.503V15.908H105.303V27.5ZM110.694 27.5H108.894V11.492H110.694V27.5Z" fill="#1A2630"/>
</svg>
