<svg width="335" height="40" viewBox="0 0 335 40" fill="none" xmlns="http://www.w3.org/2000/svg">
<rect width="40" height="40" rx="4" fill="white"/>
<path d="M19.9999 21.8083C18.2249 21.8083 16.7749 20.3666 16.7749 18.5833C16.7749 16.8 18.2249 15.3666 19.9999 15.3666C21.7749 15.3666 23.2249 16.8083 23.2249 18.5916C23.2249 20.375 21.7749 21.8083 19.9999 21.8083ZM19.9999 16.6166C18.9166 16.6166 18.0249 17.5 18.0249 18.5916C18.0249 19.6833 18.9082 20.5666 19.9999 20.5666C21.0916 20.5666 21.9749 19.6833 21.9749 18.5916C21.9749 17.5 21.0832 16.6166 19.9999 16.6166Z" fill="#1A2630"/>
<path d="M19.9999 28.9667C18.7666 28.9667 17.5249 28.5 16.5582 27.575C14.0999 25.2084 11.3832 21.4334 12.4082 16.9417C13.3332 12.8667 16.8916 11.0417 19.9999 11.0417C19.9999 11.0417 19.9999 11.0417 20.0082 11.0417C23.1166 11.0417 26.6749 12.8667 27.5999 16.95C28.6166 21.4417 25.8999 25.2084 23.4416 27.575C22.4749 28.5 21.2332 28.9667 19.9999 28.9667ZM19.9999 12.2917C17.5749 12.2917 14.4582 13.5834 13.6332 17.2167C12.7332 21.1417 15.1999 24.525 17.4332 26.6667C18.8749 28.0584 21.1332 28.0584 22.5749 26.6667C24.7999 24.525 27.2666 21.1417 26.3832 17.2167C25.5499 13.5834 22.4249 12.2917 19.9999 12.2917Z" fill="#1A2630"/>
<path d="M65.168 27.788C60.416 27.788 57.224 24.236 57.224 19.508C57.224 14.78 60.416 11.228 65.168 11.228C69.896 11.228 73.112 14.78 73.112 19.508C73.112 24.236 69.896 27.788 65.168 27.788ZM65.168 26.012C68.744 26.012 71.048 23.228 71.048 19.508C71.048 15.764 68.744 13.004 65.168 13.004C61.568 13.004 59.288 15.764 59.288 19.508C59.288 23.228 61.568 26.012 65.168 26.012ZM85.2476 27.5H83.4476V17.492H81.5276V15.908H83.4476V15.02C83.4476 12.62 84.7916 11.252 86.8076 11.252C87.4796 11.252 88.1036 11.372 88.5596 11.66L88.1036 13.028C87.8396 12.86 87.5276 12.74 87.0716 12.74C85.8956 12.74 85.2476 13.556 85.2476 15.02V15.908H87.5996V17.492H85.2476V27.5ZM90.6476 14.252C89.9996 14.252 89.4476 13.724 89.4476 13.052C89.4476 12.38 89.9996 11.828 90.6476 11.828C91.3196 11.828 91.8716 12.38 91.8716 13.052C91.8716 13.724 91.3196 14.252 90.6476 14.252ZM91.5596 27.5H89.7596V15.908H91.5596V27.5ZM78.4556 27.5H76.6556V17.492H74.7356V15.908H76.6556V15.02C76.6556 12.644 77.9516 11.252 80.0156 11.252C80.9276 11.252 81.7436 11.468 82.4636 12.14L81.7196 13.316C81.3356 12.98 80.8796 12.74 80.2796 12.74C79.1036 12.74 78.4556 13.556 78.4556 15.02V15.908H80.8076V17.492H78.4556V27.5ZM100.271 27.788C96.8154 27.788 94.4874 25.148 94.4874 21.692C94.4874 18.26 96.8154 15.62 100.271 15.62C102.383 15.62 103.631 16.484 104.519 17.636L103.319 18.74C102.551 17.684 101.567 17.228 100.367 17.228C97.8954 17.228 96.3594 19.124 96.3594 21.692C96.3594 24.26 97.8954 26.18 100.367 26.18C101.567 26.18 102.551 25.7 103.319 24.668L104.519 25.772C103.631 26.924 102.383 27.788 100.271 27.788ZM112.274 27.788C108.842 27.788 106.37 25.316 106.37 21.692C106.37 18.332 108.77 15.62 112.082 15.62C115.586 15.62 117.65 18.356 117.65 21.836V22.292H108.266C108.41 24.476 109.946 26.3 112.442 26.3C113.762 26.3 115.106 25.772 116.018 24.836L116.882 26.012C115.73 27.164 114.17 27.788 112.274 27.788ZM115.874 20.972C115.85 19.244 114.698 17.108 112.058 17.108C109.586 17.108 108.362 19.196 108.266 20.972H115.874ZM140.529 27.5H138.249L136.833 23.948H128.865L127.449 27.5H125.169L131.601 11.492H134.073L140.529 27.5ZM136.233 22.172L132.849 13.556L129.441 22.172H136.233ZM152.75 27.5H150.95V25.772C150.086 26.948 148.67 27.788 147.038 27.788C144.014 27.788 141.878 25.484 141.878 21.716C141.878 18.02 143.99 15.62 147.038 15.62C148.598 15.62 150.014 16.388 150.95 17.66V11.492H152.75V27.5ZM147.47 26.18C148.91 26.18 150.302 25.364 150.95 24.356V19.1C150.302 18.092 148.91 17.228 147.47 17.228C145.142 17.228 143.75 19.148 143.75 21.716C143.75 24.284 145.142 26.18 147.47 26.18ZM166.555 27.5H164.755V25.772C163.891 26.948 162.475 27.788 160.843 27.788C157.819 27.788 155.683 25.484 155.683 21.716C155.683 18.02 157.795 15.62 160.843 15.62C162.403 15.62 163.819 16.388 164.755 17.66V11.492H166.555V27.5ZM161.275 26.18C162.715 26.18 164.107 25.364 164.755 24.356V19.1C164.107 18.092 162.715 17.228 161.275 17.228C158.947 17.228 157.555 19.148 157.555 21.716C157.555 24.284 158.947 26.18 161.275 26.18ZM171.959 27.5H170.159V15.908H171.959V17.78C172.895 16.556 174.239 15.668 175.823 15.668V17.516C175.607 17.468 175.391 17.444 175.103 17.444C173.999 17.444 172.487 18.356 171.959 19.292V27.5ZM183.313 27.788C179.881 27.788 177.409 25.316 177.409 21.692C177.409 18.332 179.809 15.62 183.121 15.62C186.625 15.62 188.689 18.356 188.689 21.836V22.292H179.305C179.449 24.476 180.985 26.3 183.481 26.3C184.801 26.3 186.145 25.772 187.057 24.836L187.921 26.012C186.769 27.164 185.209 27.788 183.313 27.788ZM186.913 20.972C186.889 19.244 185.737 17.108 183.097 17.108C180.625 17.108 179.401 19.196 179.305 20.972H186.913ZM195.277 27.788C193.381 27.788 191.773 27.212 190.597 25.964L191.533 24.668C192.301 25.556 193.765 26.324 195.349 26.324C197.125 26.324 198.085 25.484 198.085 24.332C198.085 21.524 190.909 23.252 190.909 18.956C190.909 17.156 192.469 15.62 195.229 15.62C197.197 15.62 198.589 16.364 199.525 17.3L198.685 18.548C197.989 17.708 196.717 17.084 195.229 17.084C193.645 17.084 192.661 17.876 192.661 18.908C192.661 21.452 199.837 19.772 199.837 24.284C199.837 26.228 198.277 27.788 195.277 27.788ZM206.433 27.788C204.537 27.788 202.929 27.212 201.753 25.964L202.689 24.668C203.457 25.556 204.921 26.324 206.505 26.324C208.281 26.324 209.241 25.484 209.241 24.332C209.241 21.524 202.065 23.252 202.065 18.956C202.065 17.156 203.625 15.62 206.385 15.62C208.353 15.62 209.745 16.364 210.681 17.3L209.841 18.548C209.145 17.708 207.873 17.084 206.385 17.084C204.801 17.084 203.817 17.876 203.817 18.908C203.817 21.452 210.993 19.772 210.993 24.284C210.993 26.228 209.433 27.788 206.433 27.788ZM214.877 18.38C214.157 18.38 213.557 17.78 213.557 17.06C213.557 16.34 214.157 15.74 214.877 15.74C215.597 15.74 216.197 16.34 216.197 17.06C216.197 17.78 215.597 18.38 214.877 18.38ZM214.877 27.74C214.157 27.74 213.557 27.14 213.557 26.42C213.557 25.7 214.157 25.1 214.877 25.1C215.597 25.1 216.197 25.7 216.197 26.42C216.197 27.14 215.597 27.74 214.877 27.74Z" fill="#1A2630"/>
</svg>
